<?xml version="1.0" standalone="no"?><!DOCTYPE svg PUBLIC "-//W3C//DTD SVG 1.1//EN" "http://www.w3.org/Graphics/SVG/1.1/DTD/svg11.dtd"><svg width="100%" height="100%" viewBox="0 0 125 25" version="1.1" xmlns="http://www.w3.org/2000/svg" xmlns:xlink="http://www.w3.org/1999/xlink" xml:space="preserve" style="fill-rule:evenodd;clip-rule:evenodd;stroke-linejoin:round;stroke-miterlimit:1.41421;"><g><path d="M1.48,22.955l2.97,0c4.02,0 6.81,-2.07 6.81,-5.7l0,-0.21c0,-2.73 -1.56,-4.11 -3.54,-4.8c1.65,-0.69 3.27,-2.04 3.27,-4.86l0,-0.12c0,-3.66 -3,-5.31 -6.48,-5.31l-3.03,0l0,21ZM4.45,11.075l0,-6.39l0.42,0c1.92,0 3.21,1.02 3.21,3.06l0,0.06c0,2.1 -1.26,3.27 -3.33,3.27l-0.3,0ZM4.45,20.225l0,-6.57l0.36,0c2.13,0 3.48,1.17 3.48,3.27l0,0.12c0,2.04 -1.41,3.18 -3.54,3.18l-0.3,0Z" style="fill:#fff;fill-rule:nonzero;"/><path d="M15.64,23.225c1.26,0 2.13,-0.75 2.76,-2.16l0,1.89l2.85,0l0,-10.89c0,-3.45 -1.74,-5.28 -4.8,-5.28c-1.29,0 -2.22,0.24 -3.24,0.69l0,2.73c0.9,-0.42 1.77,-0.75 2.76,-0.75c1.59,0 2.46,0.99 2.46,2.82l0,1.26c-0.69,-0.36 -1.44,-0.6 -2.28,-0.6c-2.28,0 -3.75,1.68 -3.75,5.1l0,0.42c0,2.88 1.35,4.77 3.24,4.77ZM16.69,20.825c-0.93,0 -1.53,-0.84 -1.53,-2.61l0,-0.36c0,-1.74 0.63,-2.64 1.71,-2.64c0.51,0 1.11,0.21 1.56,0.42l0,2.88c0,1.35 -0.75,2.31 -1.74,2.31Z" style="fill:#fff;fill-rule:nonzero;"/><path d="M26.11,23.225c2.37,0 4.26,-1.65 4.26,-4.26l0,-0.06c0,-1.8 -0.66,-3.09 -2.73,-5.07c-1.71,-1.71 -2.07,-2.25 -2.07,-3.03l0,-0.06c0,-0.84 0.63,-1.41 1.59,-1.41c0.84,0 1.68,0.27 2.49,0.69l0,-2.82c-0.87,-0.33 -1.62,-0.45 -2.61,-0.45c-2.49,0 -4.26,1.56 -4.26,4.08l0,0.06c0,1.89 0.96,3.27 2.79,5.07c1.65,1.56 2.01,2.25 2.01,3.06l0,0.06c0,0.93 -0.69,1.53 -1.62,1.53c-0.9,0 -1.92,-0.36 -3.09,-0.99l0,2.85c1.02,0.45 2.13,0.75 3.24,0.75Z" style="fill:#fff;fill-rule:nonzero;"/><path d="M31.93,22.955l2.85,0l0,-4.62l0.96,-2.1l1.95,6.72l3.15,0l-3,-9.51l3,-6.48l-3.12,0l-2.94,6.93l0,-12.12l-2.85,0l0,21.18Z" style="fill:#fff;fill-rule:nonzero;"/><path d="M47.26,23.225c1.32,0 2.22,-0.36 3.42,-1.11l-0.24,-2.64c-1.05,0.69 -1.74,1.08 -2.79,1.08c-1.47,0 -2.73,-1.23 -2.88,-4.29l6.27,0l0,-1.56c0,-5.19 -1.77,-7.98 -4.41,-7.98c-2.55,0 -4.71,2.73 -4.71,7.98l0,0.63c0,5.22 2.46,7.89 5.34,7.89ZM44.74,13.985c0.09,-3.24 0.84,-4.71 1.89,-4.71c1.08,0 1.71,1.74 1.71,4.71l-3.6,0Z" style="fill:#fff;fill-rule:nonzero;"/><path d="M56.44,23.135c0.6,0 1.32,-0.18 1.77,-0.42l0,-2.34c-0.27,0.12 -0.6,0.18 -0.9,0.18c-0.75,0 -1.17,-0.3 -1.17,-1.23l0,-9.99l2.07,0l0,-2.37l-2.07,0l0,-4.2l-2.85,0l0,4.2l-1.14,0l0,2.37l1.14,0l0,10.89c0,2.31 1.44,2.91 3.15,2.91Z" style="fill:#fff;fill-rule:nonzero;"/><path d="M65.8,23.225c1.98,0 3.63,-2.16 3.63,-7.68l0,-1.17c0,-5.58 -1.65,-7.68 -3.63,-7.68c-1.56,0 -2.43,1.38 -2.97,2.61l0,-7.53l-2.85,0l0,21.18l2.85,0l0,-2.28c0.57,1.23 1.41,2.55 2.97,2.55ZM64.75,20.525c-1.11,0 -1.95,-1.8 -1.95,-5.07l0,-0.99c0,-3.27 0.84,-5.07 1.95,-5.07c1.11,0 1.83,1.8 1.83,5.13l0,0.9c0,3.3 -0.72,5.1 -1.83,5.1Z" style="fill:#fff;fill-rule:nonzero;"/><path d="M74.05,23.225c1.26,0 2.13,-0.75 2.76,-2.16l0,1.89l2.85,0l0,-10.89c0,-3.45 -1.74,-5.28 -4.8,-5.28c-1.29,0 -2.22,0.24 -3.24,0.69l0,2.73c0.9,-0.42 1.77,-0.75 2.76,-0.75c1.59,0 2.46,0.99 2.46,2.82l0,1.26c-0.69,-0.36 -1.44,-0.6 -2.28,-0.6c-2.28,0 -3.75,1.68 -3.75,5.1l0,0.42c0,2.88 1.35,4.77 3.24,4.77ZM75.1,20.825c-0.93,0 -1.53,-0.84 -1.53,-2.61l0,-0.36c0,-1.74 0.63,-2.64 1.71,-2.64c0.51,0 1.11,0.21 1.56,0.42l0,2.88c0,1.35 -0.75,2.31 -1.74,2.31Z" style="fill:#fff;fill-rule:nonzero;"/><rect x="81.97" y="1.775" width="2.85" height="21.18" style="fill:#fff;fill-rule:nonzero;"/><rect x="87.31" y="1.775" width="2.85" height="21.18" style="fill:#fff;fill-rule:nonzero;"/><path d="M92.05,22.955l8.34,0l0,-2.94l-5.13,0l3.45,-7.65c1.2,-2.67 1.71,-4.05 1.71,-5.76l0,-0.15c0,-2.94 -1.86,-4.65 -4.53,-4.65c-1.35,0 -2.43,0.39 -3.39,0.87l0,2.91c0.84,-0.51 1.74,-0.9 2.82,-0.9c1.32,0 2.19,0.93 2.19,2.31c0,1.17 -0.42,2.49 -1.44,4.77l-4.02,8.76l0,2.43Z" style="fill:#fff;fill-rule:nonzero;"/><path d="M108.49,23.135c1.29,0 2.25,-0.3 3.51,-0.87l0,-10.86l-4.92,0l0,2.64l2.22,0l0,6.24c-0.3,0.09 -0.42,0.12 -0.69,0.12c-1.89,0 -3.69,-1.83 -3.69,-7.5l0,-0.9c0,-4.98 1.65,-7.38 3.9,-7.38c0.93,0 1.74,0.36 2.64,0.9l0,-3.12c-0.75,-0.36 -1.62,-0.6 -2.73,-0.6c-3.9,0 -6.81,3.48 -6.81,10.32l0,0.66c0,7.2 2.97,10.35 6.57,10.35Z" style="fill:#fff;fill-rule:nonzero;"/><path d="M118.72,23.225c2.7,0 4.8,-2.76 4.8,-7.86l0,-0.75c0,-5.1 -2.07,-7.89 -4.8,-7.89c-2.73,0 -4.83,2.79 -4.83,7.89l0,0.75c0,5.1 2.1,7.86 4.83,7.86ZM118.72,20.675c-1.17,0 -1.98,-1.83 -1.98,-5.28l0,-0.84c0,-3.45 0.81,-5.28 1.98,-5.28c1.14,0 1.95,1.83 1.95,5.28l0,0.84c0,3.45 -0.81,5.28 -1.95,5.28Z" style="fill:#fff;fill-rule:nonzero;"/></g></svg>